<?xml version="1.0" encoding="UTF-8"?>
<svg version="1.1" xmlns="http://www.w3.org/2000/svg" width="1024" height="1024">
<path d="M0 0 C337.92 0 675.84 0 1024 0 C1024 337.92 1024 675.84 1024 1024 C686.08 1024 348.16 1024 0 1024 C0 686.08 0 348.16 0 0 Z " fill="#FEFEFE" transform="translate(0,0)"/>
<path d="M0 0 C337.92 0 675.84 0 1024 0 C1024 337.92 1024 675.84 1024 1024 C686.08 1024 348.16 1024 0 1024 C0 686.08 0 348.16 0 0 Z M171 154 C170.1234375 154.721875 169.246875 155.44375 168.34375 156.1875 C165.57590373 158.49265896 165.57590373 158.49265896 163 161 C163 161.66 163 162.32 163 163 C162.13761719 163.34998047 162.13761719 163.34998047 161.2578125 163.70703125 C142.90126751 174.21917034 130.59060452 206.93611206 125 226 C121.77951633 237.97982534 119.84116772 249.72361967 119.86857224 262.1441555 C119.8665196 263.02342534 119.86446697 263.90269517 119.86235213 264.80860955 C119.85671187 267.74566082 119.85813569 270.68266475 119.85955811 273.61972046 C119.85697276 275.75059393 119.85395912 277.88146692 119.8505547 280.01233923 C119.84250128 285.86134108 119.84069606 291.71033064 119.83995724 297.55933738 C119.83810377 303.87044334 119.83055492 310.18154297 119.82382202 316.49264526 C119.80954204 331.00975452 119.80371347 345.52686057 119.79913008 360.04397554 C119.79679143 367.22381395 119.79318846 374.40365157 119.7894347 381.58348936 C119.77660083 406.17938897 119.76588196 430.77528814 119.7624321 455.37119102 C119.76221047 456.91424846 119.76198868 458.45730589 119.76176675 460.00036333 C119.76154611 461.54706679 119.76132563 463.09377026 119.7611053 464.64047372 C119.76066276 467.74322597 119.76021564 470.84597822 119.75976562 473.94873047 C119.75965623 474.71802859 119.75954684 475.4873267 119.75943414 476.27993688 C119.75580545 501.21093433 119.73989168 526.14190266 119.71657526 551.07288897 C119.69194696 577.45502119 119.67825785 603.83713679 119.67706418 630.21928084 C119.67689274 633.11868708 119.67667731 636.01809331 119.67642975 638.91749954 C119.67637398 639.63137195 119.67631821 640.34524436 119.67626075 641.08074926 C119.67511287 652.5404283 119.6641132 664.00007732 119.64954269 675.45974624 C119.63513472 686.99152664 119.63221617 698.52325488 119.63998267 710.05504446 C119.64387964 716.29531954 119.64300617 722.53549422 119.62892532 728.77575684 C119.61612929 734.49919169 119.61743376 740.22245128 119.62951604 745.94588609 C119.6314632 748.0058355 119.62844051 750.06579758 119.61967167 752.12572925 C119.55509458 768.33463357 120.53973594 784.48976009 125.875 799.9375 C126.26679443 801.11747559 126.26679443 801.11747559 126.66650391 802.32128906 C134.44710991 825.38370614 146.19848045 844.5315499 163 862 C163.91072266 863.02287109 163.91072266 863.02287109 164.83984375 864.06640625 C181.76495661 882.44991886 207.12592475 894.62505856 231 900.75 C231.76997314 900.94883789 232.53994629 901.14767578 233.33325195 901.35253906 C247.87701818 904.86970829 262.16435304 905.29270119 277.04185486 905.26742554 C279.1454707 905.27116818 281.24908515 905.27577214 283.35269743 905.28115618 C289.09869279 905.29332584 294.84462966 905.29313286 300.59063494 905.29076743 C306.80153134 905.29035773 313.01240938 905.30141309 319.22329712 905.31088257 C331.37934663 905.32746085 343.53536967 905.33301669 355.69142818 905.33410732 C365.57883475 905.33502859 375.46623507 905.3391566 385.3536396 905.34550858 C388.20611955 905.34730384 391.05859951 905.34908347 393.91107947 905.35085833 C394.97497795 905.35152148 394.97497795 905.35152148 396.06036933 905.35219802 C415.99586512 905.36449688 435.93135874 905.37240013 455.86685848 905.37151146 C456.99297765 905.37146472 456.99297765 905.37146472 458.14184669 905.37141704 C461.94638988 905.37125084 465.75093306 905.37105276 469.55547624 905.37084763 C470.68873874 905.37078779 470.68873874 905.37078779 471.84489544 905.37072675 C473.37271675 905.37064587 474.90053806 905.37056228 476.42835937 905.37047596 C500.1824887 905.3692513 523.93656085 905.38425208 547.69067383 905.41162109 C574.41915248 905.4424049 601.14759358 905.45954977 627.87609106 905.45769465 C630.73140021 905.45754541 633.58670936 905.45744798 636.44201851 905.45738602 C637.14499275 905.45736271 637.84796698 905.4573394 638.57224347 905.45731538 C649.83906789 905.45725408 661.1058423 905.46997467 672.37265189 905.48725055 C683.71560373 905.50428225 695.05846348 905.505782 706.40142822 905.4930319 C712.53505338 905.48653037 718.66849909 905.48628267 724.80210686 905.5037384 C730.43371019 905.51959956 736.06499374 905.51647397 741.69658989 905.49917014 C743.71741801 905.49612868 745.7382708 905.49962268 747.75906979 905.51089029 C790.66249036 905.73397607 828.51543108 892.33562215 860 863 C860.72960937 862.33613281 861.45921875 861.67226563 862.2109375 860.98828125 C888.20345547 836.35638246 903.27170935 799.3324034 904.457896 763.79751641 C904.54227508 759.05937457 904.53558534 754.3239038 904.5146637 749.5852356 C904.52000531 747.43005205 904.52708017 745.27487224 904.53571075 743.11969936 C904.55415091 737.26822617 904.54809812 731.41700927 904.53755772 725.56552625 C904.53051224 719.22726643 904.54660388 712.88905648 904.55955505 706.55081177 C904.57986916 694.87544947 904.58203705 683.20017563 904.57433859 671.52480054 C904.56723895 660.73395012 904.56723427 649.9431295 904.57420158 639.1522789 C904.57511295 637.69934534 904.57602372 636.24641178 904.57693387 634.79347821 C904.57831715 632.60348542 904.57970825 630.41349263 904.58112001 628.22349986 C904.59408123 607.89074275 904.59923944 587.55799553 904.5875864 567.22523689 C904.58714843 566.46043267 904.58671046 565.69562844 904.58625922 564.90764832 C904.58265316 558.69869066 904.578818 552.48973313 904.57496829 546.28077561 C904.56012389 522.06881509 904.56890302 497.85696741 904.59692383 473.64501953 C904.62841764 446.3806627 904.64330109 419.11637261 904.63312382 391.85199726 C904.63208719 388.93978239 904.63109995 386.02756752 904.6301403 383.11535263 C904.62989142 382.39840316 904.62964253 381.6814537 904.6293861 380.94277849 C904.62596002 370.16600246 904.63519843 359.38928579 904.65091133 348.61252213 C904.66875874 336.3443236 904.66823124 324.0762956 904.64555968 311.80809988 C904.63447215 305.5588268 904.63112978 299.30982309 904.64986038 293.06056213 C904.76915193 250.0682122 901.6959804 209.50959069 873 175 C872.30753174 174.15163574 872.30753174 174.15163574 871.60107422 173.28613281 C848.83124633 145.44549205 817.68051972 126.67078603 782 121 C781.00377562 120.83329878 780.00755123 120.66659756 778.98113823 120.49484479 C767.92835907 118.81394199 757.03840737 118.7136925 745.87548828 118.73257446 C743.76291015 118.72883187 741.65033341 118.72422794 739.53775883 118.71884382 C733.76702978 118.7066736 727.99635897 118.7068672 722.22562003 118.70923257 C715.98815768 118.70964226 709.75071362 118.6985871 703.51325989 118.68911743 C691.30540846 118.67253908 679.09758339 118.66698332 666.889723 118.66589268 C656.96083187 118.66497146 647.03194697 118.66084371 637.10305786 118.65449142 C634.23876668 118.65269617 631.37447548 118.65091654 628.51018429 118.64914167 C627.79798706 118.64869957 627.08578982 118.64825748 626.35201086 118.64780198 C606.33435 118.63550324 586.3166913 118.62759987 566.29902649 118.62848854 C565.54518944 118.6285197 564.79135239 118.62855086 564.0146718 118.62858296 C560.19444755 118.62874916 556.37422331 118.62894724 552.55399907 118.62915237 C551.79537365 118.62919226 551.03674824 118.62923215 550.25513418 118.62927325 C548.72100976 118.62935413 547.18688533 118.62943772 545.65276091 118.62952404 C521.79794251 118.63074884 497.94318103 118.61574533 474.08837891 118.58837891 C447.24820851 118.55759987 420.4080755 118.54044993 393.56788635 118.54230535 C390.70108032 118.5424546 387.83427429 118.54255202 384.96746826 118.54261398 C383.90875632 118.54264895 383.90875632 118.54264895 382.82865626 118.54268462 C371.51328313 118.54274594 360.19795976 118.5300219 348.88260139 118.51274945 C337.49261824 118.49572377 326.10272681 118.4942136 314.71273082 118.5069681 C308.55290138 118.51347256 302.39325064 118.51370649 296.23343849 118.4962616 C290.57906597 118.48041379 284.92501211 118.4835128 279.27064681 118.50082986 C277.24041529 118.50387418 275.21015927 118.5003661 273.17995667 118.48910971 C235.15425095 118.29247855 200.27825748 129.58897202 171 154 Z " fill="#FEFEFE" transform="translate(0,0)"/>
<path d="M0 0 C0.8664231 -0.00235223 1.7328462 -0.00470446 2.62552455 -0.00712797 C5.53098518 -0.01378886 8.43640079 -0.01336062 11.3418684 -0.01294994 C13.44540305 -0.01625042 15.54893707 -0.01997638 17.65247029 -0.02409142 C23.43546719 -0.03409935 29.21845372 -0.03782631 35.00145805 -0.04048073 C41.23843219 -0.04438758 47.47539815 -0.05396592 53.71236706 -0.0626936 C68.06745584 -0.08151721 82.42254275 -0.09171462 96.77764061 -0.10015428 C103.87959131 -0.1043653 110.98154117 -0.10958683 118.08349117 -0.11483881 C142.41834753 -0.13273187 166.75320414 -0.14772354 191.0880661 -0.155159 C192.61543793 -0.15563375 194.14280976 -0.15610964 195.67018158 -0.15658666 C196.42758914 -0.15682303 197.18499669 -0.15705941 197.96535599 -0.15730295 C201.80246393 -0.15850409 205.63957187 -0.15971956 209.4766798 -0.16094494 C210.23815416 -0.16118509 210.99962853 -0.16142524 211.78417787 -0.16167267 C236.4371136 -0.16955422 261.09000105 -0.19296091 285.74291572 -0.22550088 C311.8366341 -0.25987933 337.93032428 -0.27951777 364.02406567 -0.28280324 C366.89470113 -0.28322073 369.76533658 -0.28370029 372.63597202 -0.28422642 C373.69613857 -0.28441121 373.69613857 -0.28441121 374.77772262 -0.28459973 C386.10410493 -0.28692235 397.43043079 -0.30253012 408.75679306 -0.32306826 C420.16796344 -0.34342991 431.57904755 -0.34842452 442.99023966 -0.33929763 C449.16051513 -0.33477494 455.33060908 -0.33651991 461.50085926 -0.35605907 C521.30770904 -0.5350628 521.30770904 -0.5350628 543.19958019 8.13422108 C543.97607922 8.43989002 544.75257824 8.74555897 545.55260754 9.06049061 C571.37018769 19.34242227 594.36621773 34.71021634 611.19958019 57.13422108 C612.29012707 58.57668201 612.29012707 58.57668201 613.40270519 60.04828358 C622.19053374 72.18531951 629.22169077 85.32343929 634.07458019 99.50922108 C634.33642101 100.26074451 634.59826183 101.01226795 634.86803722 101.78656483 C640.29645064 118.69508024 641.79126604 135.67816219 641.70751476 153.3219347 C641.71213617 155.47681698 641.71849732 157.6316961 641.72642374 159.78656876 C641.7429702 165.64642756 641.73493814 171.5060225 641.72247887 177.36588168 C641.71336988 183.70958737 641.72742699 190.05324998 641.73839855 196.39694691 C641.75510491 208.08549364 641.75373135 219.77394759 641.74275268 231.46249872 C641.73265711 242.2650296 641.7300791 253.0675301 641.73484325 263.87006474 C641.73530156 264.94840216 641.73530156 264.94840216 641.73576913 266.04852418 C641.73701466 268.96737456 641.73828828 271.88622492 641.73960819 274.80507526 C641.75182216 302.14171607 641.74078588 329.47830412 641.7192206 356.81493678 C641.7002447 381.05339186 641.70193583 405.29176283 641.72106457 429.53021717 C641.74252709 456.81651126 641.75095161 484.10275878 641.73861551 511.38906014 C641.73733282 514.30295538 641.73608144 517.21685063 641.73484325 520.13074589 C641.73452694 520.8481232 641.73421064 521.56550052 641.73388474 522.30461654 C641.72935256 533.09376673 641.73462281 543.88288305 641.74476147 554.67202854 C641.75624485 566.95275919 641.75285991 579.23337659 641.73163849 591.51409756 C641.72117985 597.77117331 641.71691711 604.02807918 641.7302351 610.28515339 C641.74227323 616.02811621 641.73541075 621.77075386 641.71432489 627.51368774 C641.70990667 629.5760365 641.71201531 631.63841352 641.72182804 633.70074366 C641.87821681 669.34103457 632.01505607 704.8210928 608.19958019 732.13422108 C607.43903332 733.01980701 606.67848644 733.90539295 605.89489269 734.81781483 C603.70818788 737.30339452 601.47281398 739.72774268 599.19958019 742.13422108 C598.15737316 743.25570545 598.15737316 743.25570545 597.09411144 744.39984608 C571.52441245 771.04077107 533.03154195 785.5310762 496.44591609 786.47618666 C491.80670605 786.53886386 487.16903447 786.5320148 482.52953625 786.515172 C480.41875356 786.51863764 478.30797269 786.52340823 476.19719553 786.52935374 C470.45474029 786.54176894 464.71243643 786.53573696 458.96998096 786.52639508 C452.7544763 786.51956571 446.53899643 786.53010497 440.32349682 786.53833485 C428.8707867 786.55086645 417.41814332 786.54983362 405.96543361 786.54160044 C395.38221741 786.53403041 384.79901865 786.53209451 374.21580029 786.53566837 C373.51165437 786.53589753 372.80750845 786.53612668 372.08202478 786.53636278 C369.2231058 786.53729692 366.36418683 786.53825213 363.50526787 786.53924207 C336.72916632 786.54840297 309.95309506 786.5401243 283.17699819 786.52395138 C259.42881268 786.50971636 235.68067544 786.51099032 211.93249035 786.52533436 C185.20291387 786.54142552 158.47336413 786.54775308 131.74378347 786.53849757 C128.89030902 786.53753553 126.03683456 786.536597 123.1833601 786.53566837 C122.48084867 786.53543114 121.77833724 786.53519391 121.05453759 786.53494949 C110.48234857 786.53154831 99.91017899 786.53550685 89.33799267 786.54310703 C77.30749814 786.55171287 65.27707294 786.54919424 53.24658048 786.5332648 C47.11547422 786.52541264 40.98446559 786.52223812 34.85336018 786.53221226 C29.22899161 786.54122325 23.60481017 786.53612192 17.98045832 786.5202796 C15.95783533 786.51695871 13.93519616 786.51856426 11.91258377 786.52590697 C-31.00801698 786.66963525 -70.08750068 772.67634761 -100.98791981 742.38422108 C-130.7830423 712.32465705 -143.15223874 672.35938838 -143.05438709 630.87285328 C-143.05669459 628.73338784 -143.05987305 626.5939232 -143.06384158 624.4544602 C-143.07215834 618.60515209 -143.06807851 612.7559096 -143.06186914 606.90660131 C-143.0573329 600.58683517 -143.06433421 594.26708009 -143.06982899 587.94731617 C-143.07819917 576.29291113 -143.07748689 564.63853255 -143.07200605 552.98412686 C-143.06696742 542.21670266 -143.06566504 531.44928607 -143.06805134 520.68186092 C-143.06820411 519.96658227 -143.06835688 519.25130361 -143.06851428 518.51434985 C-143.06913699 515.61053567 -143.0697738 512.7067215 -143.07043381 509.80290734 C-143.07654637 482.5850684 -143.07101338 455.3672427 -143.06024001 428.1494058 C-143.05074839 403.98605263 -143.05159954 379.82272055 -143.06116199 355.65936756 C-143.07187876 328.48859428 -143.07611382 301.31783269 -143.06993747 274.14705759 C-143.06929607 271.24896022 -143.06867038 268.35086284 -143.06805134 265.45276546 C-143.06789318 264.73922102 -143.06773503 264.02567658 -143.06757208 263.29050957 C-143.06530034 252.53109856 -143.06795169 241.77169602 -143.07301044 231.01228619 C-143.07873547 218.7750473 -143.07709336 206.53783961 -143.06644896 194.30060237 C-143.06119845 188.05903393 -143.059125 181.81750824 -143.06574726 175.57594013 C-143.07172152 169.8585986 -143.06840718 164.14133932 -143.05779216 158.42400522 C-143.05556441 156.35960391 -143.05668031 154.29519561 -143.06154373 152.23079883 C-143.08454034 141.65528875 -142.89975351 131.5374494 -140.80041981 121.13422108 C-140.6608688 120.38745308 -140.52131779 119.64068509 -140.37753797 118.87128776 C-134.88290962 90.70409517 -121.61233693 64.93673405 -101.80041981 44.13422108 C-101.14041981 44.13422108 -100.48041981 44.13422108 -99.80041981 44.13422108 C-99.80041981 43.47422108 -99.80041981 42.81422108 -99.80041981 42.13422108 C-97.33515446 39.58632113 -94.5250284 37.39877281 -91.80041981 35.13422108 C-91.07596668 34.51160389 -90.35151356 33.8889867 -89.60510731 33.24750233 C-64.92286488 12.6231879 -32.28580976 -0.06008468 0 0 Z M-73.11291981 86.00922108 C-92.57501319 110.48666754 -96.95635184 135.63029982 -96.9408617 165.82466602 C-96.94344786 167.84233355 -96.94646172 169.86000057 -96.9498651 171.87766689 C-96.9579088 177.40902669 -96.9597232 182.9403735 -96.96046257 188.47173846 C-96.96231769 194.44263564 -96.96986729 200.41352614 -96.97659779 206.38441944 C-96.99086941 220.11421471 -96.99670499 233.84400899 -97.00128973 247.57380998 C-97.00362909 254.36455488 -97.00723209 261.15529894 -97.01098511 267.94604319 C-97.02381701 291.21033707 -97.03453685 314.4746305 -97.03798771 337.73892784 C-97.03820934 339.19802052 -97.03843112 340.65711319 -97.03865306 342.11620587 C-97.0388737 343.57873183 -97.03909418 345.0412578 -97.03931451 346.50378376 C-97.03975705 349.43764373 -97.04020417 352.37150369 -97.04065418 355.30536366 C-97.04076357 356.03278481 -97.04087296 356.76020596 -97.04098567 357.50967018 C-97.04461533 381.08991423 -97.06053379 404.67012753 -97.08384455 428.25035981 C-97.10846905 453.20533223 -97.12216174 478.16028707 -97.12335563 503.11527199 C-97.12352707 505.85735127 -97.12374249 508.59943054 -97.12399006 511.34150982 C-97.12404583 512.01664236 -97.1241016 512.6917749 -97.12415905 513.387366 C-97.12530715 524.22718712 -97.13630843 535.06697653 -97.15087711 545.90678696 C-97.16528001 556.81221227 -97.16820628 567.71759522 -97.16043714 578.62302733 C-97.15653857 584.52484422 -97.15742156 590.42655493 -97.17149448 596.32835865 C-97.18428059 601.74016449 -97.18299466 607.15178488 -97.17090377 612.56359064 C-97.16895493 614.51243907 -97.17198723 616.46130085 -97.18074813 618.41013057 C-97.31476185 650.25922683 -88.12943664 678.70686285 -65.55041981 701.82172108 C-52.19990515 715.01677122 -35.12772574 724.82442387 -16.80041981 729.13422108 C-15.80586679 729.3842729 -15.80586679 729.3842729 -14.7912218 729.63937628 C-5.0155539 731.77699231 4.86386697 731.41839996 14.81424999 731.40164661 C16.92011516 731.40538617 19.02597894 731.4099889 21.13184053 731.41537726 C26.90231807 731.42758487 32.67273753 731.42734943 38.44322503 731.42498851 C44.67312549 731.42457978 50.90300747 731.43562484 57.13289928 731.44510365 C69.3322657 731.46170219 81.53160573 731.46723862 93.73098113 731.4683284 C103.64906318 731.46924859 113.56713898 731.47337102 123.485219 731.47972965 C126.34336878 731.48152483 129.20151857 731.48330445 132.05966836 731.48507941 C132.77027626 731.4855215 133.48088416 731.4859636 134.21302564 731.48641909 C154.19282 731.49872221 174.17261219 731.50662076 194.15241051 731.50573254 C194.90522243 731.50570138 195.65803435 731.50567022 196.43365875 731.50563812 C200.24894894 731.50547191 204.06423913 731.50527383 207.87952932 731.5050687 C208.63721659 731.50502881 209.39490387 731.50498892 210.17555136 731.50494782 C211.70777881 731.50486695 213.24000627 731.50478335 214.77223372 731.50469704 C238.60619458 731.50347179 262.44009851 731.51848213 286.27404308 731.54584217 C313.07126756 731.57659145 339.86845464 731.59377296 366.66569787 731.59191573 C369.52541943 731.59176647 372.38514099 731.59166906 375.24486256 731.59160709 C376.30101199 731.59157213 376.30101199 731.59157213 377.37849778 731.59153646 C388.68803447 731.59147503 399.99752157 731.60422309 411.30704353 731.62147162 C422.68171094 731.63846021 434.05628645 731.64003486 445.43096664 731.62725298 C451.58787573 731.62072975 457.74460585 731.62058316 463.90149784 731.63795948 C469.54517862 731.6537232 475.188539 731.65079261 480.83221213 731.63339122 C482.86647631 731.63032863 484.90076459 731.63392551 486.93500032 731.64511137 C513.51531687 731.78151223 538.97535649 723.87415433 559.19958019 706.13422108 C559.94465832 705.53222889 560.68973644 704.9302367 561.45739269 704.31000233 C582.3754274 686.92689683 592.39029756 660.51919229 595.19958019 634.13422108 C595.67323384 627.20304686 595.60672456 620.26031105 595.58053112 613.31679249 C595.58399657 611.28651799 595.58876704 609.25624539 595.59471285 607.22597665 C595.60713031 601.7015691 595.60109507 596.17731886 595.5917542 590.65291107 C595.5849259 584.67400431 595.59546348 578.69512333 595.60369396 572.71622181 C595.61622594 561.6999044 595.61519272 550.68363328 595.60695956 539.66731412 C595.59939087 529.48927227 595.59745302 519.31124855 595.60102749 509.13320446 C595.60125664 508.45613624 595.6014858 507.77906802 595.6017219 507.08148258 C595.60265602 504.33256628 595.60361123 501.58364998 595.60460119 498.8347337 C595.6137619 473.08995306 595.60548315 447.34520395 595.5893105 421.60042818 C595.57507063 398.75872964 595.57635352 375.91708129 595.59069347 353.07538319 C595.60677699 327.37094151 595.61311686 301.66652762 595.60385668 275.96208161 C595.60289462 273.21931788 595.6019561 270.47655414 595.60102749 267.7337904 C595.60079026 267.05852579 595.60055302 266.38326118 595.6003086 265.687534 C595.59690476 255.51713505 595.60087087 245.34675628 595.60846615 235.17636013 C595.61706303 223.60759405 595.61457129 212.0388843 595.59862392 200.47012488 C595.59076084 194.57242548 595.58761616 188.67482773 595.59757137 182.77712917 C595.60655917 177.37066019 595.60151847 171.96438636 595.58563872 166.5579349 C595.58230821 164.61004995 595.58394562 162.66214825 595.59126608 160.71427421 C595.69905698 129.63021771 586.96162109 102.58108088 565.59801769 79.54047108 C546.10523094 59.9841899 521.14160416 50.78016017 493.86167783 50.72832876 C491.87085145 50.73412213 489.88002589 50.74020306 487.88920116 50.74654102 C485.74433515 50.7423627 483.59947134 50.73688246 481.4546116 50.73022121 C475.5902001 50.71581332 469.7259297 50.71999679 463.86151063 50.72738802 C457.52529906 50.73212894 451.1891176 50.71960166 444.85291576 50.70937061 C433.16706861 50.69318684 421.48127763 50.69073347 409.79542271 50.6956756 C398.99647946 50.70024015 388.19755283 50.69962442 377.39861012 50.69383526 C375.9477185 50.69307838 374.49682689 50.6923224 373.04593528 50.69156731 C370.85932574 50.69042207 368.67271621 50.68927218 366.48610669 50.68810807 C346.16800486 50.67740954 325.84990856 50.67267114 305.53180504 50.68057823 C304.76657064 50.68087541 304.00133624 50.68117258 303.21291292 50.68147876 C296.9994501 50.68392747 290.78598735 50.68653917 284.5725246 50.68916289 C260.3419823 50.69926324 236.11150931 50.69091131 211.88097668 50.66766834 C184.62958706 50.64156965 157.37823917 50.6287548 130.1268366 50.63585609 C127.21855693 50.6365721 124.31027725 50.6372465 121.40199757 50.63789654 C120.68595651 50.63806635 119.96991546 50.63823616 119.23217619 50.63841111 C108.44508739 50.64070964 97.65803746 50.63275844 86.87095737 50.61960506 C74.59647808 50.60466428 62.32210678 50.60426293 50.04762741 50.62167598 C43.78931485 50.63017873 37.53117543 50.63235298 31.27287197 50.61702442 C25.53550002 50.60314615 19.79844905 50.60798112 14.06109551 50.62726366 C11.99393137 50.63101431 9.92674132 50.62812892 7.85960033 50.61765201 C-23.87843443 50.46832805 -52.09373465 61.60504445 -73.11291981 86.00922108 Z " fill="#010201" transform="translate(262.8004198074341,118.86577892303467)"/>
<path d="M0 0 C117.18072289 0 117.18072289 0 136 10 C136.99644531 10.52464844 137.99289062 11.04929687 139.01953125 11.58984375 C151.84333968 19.04554632 159.44254738 30.40360197 164.09765625 44.26953125 C168.89303551 63.07187877 166.90362344 83.76941268 158 101 C151.1302688 112.1301439 142.89193429 119.53451505 131 125 C130.34 125 129.68 125 129 125 C129.6290625 125.94359375 130.258125 126.8871875 130.90625 127.859375 C133.46875 131.703125 133.46875 131.703125 136.03125 135.546875 C136.50232178 136.25328125 136.97339355 136.9596875 137.45874023 137.6875 C138.51368582 139.27033614 139.56784741 140.85369501 140.62133789 142.4375 C144.40904068 148.1279455 148.21309612 153.80698466 152.02877808 159.47869873 C154.52645156 163.19345484 157.01922747 166.91148459 159.51147461 170.62988281 C160.80601077 172.55896978 162.10259408 174.4866844 163.40112305 176.41308594 C165.29235457 179.21971997 167.17617529 182.03119999 169.05859375 184.84375 C169.9319059 186.1343634 169.9319059 186.1343634 170.82286072 187.4510498 C171.35754471 188.25288696 171.8922287 189.05472412 172.44311523 189.88085938 C172.91418198 190.58190796 173.38524872 191.28295654 173.87059021 192.00524902 C175.00640788 194.01131752 175.56019071 195.747198 176 198 C168.29604704 198.25400875 160.59317626 198.42885392 152.88598633 198.54931641 C150.26578424 198.59953978 147.6458615 198.66773478 145.02661133 198.75439453 C141.25532169 198.87602596 137.48773981 198.93247506 133.71484375 198.9765625 C132.54791489 199.02817535 131.38098602 199.07978821 130.17869568 199.13296509 C122.20540961 199.13843686 122.20540961 199.13843686 118.79000854 195.91279602 C116.97644645 193.35219374 115.46284451 190.77347943 114 188 C113.31067383 186.95706787 112.62134766 185.91413574 111.91113281 184.83959961 C111.34749023 183.95280518 110.78384766 183.06601074 110.203125 182.15234375 C109.55988281 181.14324951 108.91664063 180.13415527 108.25390625 179.09448242 C107.59261719 178.05267822 106.93132812 177.01087402 106.25 175.9375 C104.83884411 173.72376551 103.42738477 171.51022443 102.015625 169.296875 C101.33177734 168.22373047 100.64792969 167.15058594 99.94335938 166.04492188 C97.30888349 161.91713504 94.65927291 157.79934529 92 153.6875 C91.60458008 153.07447021 91.20916016 152.46144043 90.80175781 151.82983398 C86.92798637 145.84477674 82.95588051 139.93382077 79 134 C68.77 133.67 58.54 133.34 48 133 C48 154.45 48 175.9 48 198 C32.16 198 16.32 198 0 198 C0 132.66 0 67.32 0 0 Z " fill="#040404" transform="translate(446,413)"/>
<path d="M0 0 C15.18 0 30.36 0 46 0 C56.32858125 21.80478264 56.32858125 21.80478264 60.375 31 C61.10348145 32.64657593 61.10348145 32.64657593 61.84667969 34.32641602 C63.24670042 37.49228453 64.64437185 40.65917225 66.0411377 43.82647705 C67.83562855 47.89418003 69.63284284 51.96068012 71.4296875 56.02734375 C72.22257738 57.821939 73.01546471 59.61653537 73.80834961 61.41113281 C74.40992386 62.77268494 74.40992386 62.77268494 75.02365112 64.16174316 C76.25490213 66.94859563 77.48597733 69.73552572 78.71704102 72.52246094 C88.7410531 95.21318934 98.76988586 117.90128153 109 140.5 C113.91839658 151.36729233 118.81215613 162.24536949 123.66943359 173.14013672 C124.38296511 174.73969833 125.0974645 176.33882859 125.81298828 177.9375 C126.81040305 180.16673849 127.80411782 182.39759041 128.796875 184.62890625 C129.23963776 185.61589256 129.23963776 185.61589256 129.69134521 186.62281799 C131.36217477 190.39116089 132.68864955 194.06594864 134 198 C117.17 198 100.34 198 83 198 C80.195 191.791875 77.39 185.58375 74.5 179.1875 C73.1687207 176.25266724 73.1687207 176.25266724 71.81054688 173.25854492 C71.11283713 171.70771926 70.41554294 170.15670655 69.71875 168.60546875 C69.16815918 167.39775818 69.16815918 167.39775818 68.60644531 166.16564941 C68.08872559 165.00893738 68.08872559 165.00893738 67.56054688 163.82885742 C67.2585437 163.16045334 66.95654053 162.49204926 66.64538574 161.8033905 C66 160 66 160 66 157 C37.62 157.33 9.24 157.66 -20 158 C-24.95 169.22 -29.9 180.44 -35 192 C-35.99 193.98 -36.98 195.96 -38 198 C-54.5 198 -71 198 -88 198 C-86.80968401 194.42905202 -85.7387801 191.22565834 -84.20336914 187.86010742 C-83.85818237 187.09935913 -83.51299561 186.33861084 -83.15734863 185.55480957 C-82.78702515 184.7465271 -82.41670166 183.93824463 -82.03515625 183.10546875 C-81.45199646 181.82258972 -81.45199646 181.82258972 -80.85705566 180.51379395 C-80.0259818 178.68599326 -79.1936391 176.85876906 -78.36013794 175.03207397 C-76.17080417 170.23279857 -73.99189206 165.42879623 -71.8125 160.625 C-71.38505997 159.68331467 -70.95761993 158.74162933 -70.51722717 157.77140808 C-67.48934608 151.09515638 -64.49888545 144.40457971 -61.5625 137.6875 C-56.54212681 126.21035513 -51.4636565 114.75951348 -46.375 103.3125 C-45.94313385 102.34090942 -45.5112677 101.36931885 -45.0663147 100.36828613 C-38.46135743 85.5113214 -31.83239075 70.66522221 -25.18457031 55.82739258 C-21.60691807 47.84011179 -18.04049382 39.84802236 -14.4921875 31.84765625 C-14.12343506 31.01648788 -13.75468262 30.18531952 -13.37475586 29.32896423 C-11.61017193 25.35095598 -9.84723532 21.37223033 -8.08691406 17.39233398 C-7.45642506 15.96986944 -6.82589354 14.54742375 -6.1953125 13.125 C-5.91485077 12.48929581 -5.63438904 11.85359161 -5.34542847 11.19862366 C-3.66066479 7.40249834 -1.86071095 3.72142191 0 0 Z " fill="#030303" transform="translate(293,413)"/>
<path d="M0 0 C15.57693149 11.59180564 15.57693149 11.59180564 18.26953125 18.50390625 C17.55990234 19.17873047 17.55990234 19.17873047 16.8359375 19.8671875 C12.89115203 23.704318 9.27121294 27.64242914 5.83203125 31.94140625 C1.63875327 37.16665212 -2.91148344 41.85910114 -7.73046875 46.50390625 C-8.73269344 47.5016766 -9.73360844 48.50077638 -10.73046875 49.50390625 C-11.34921875 48.67890625 -11.96796875 47.85390625 -12.60546875 47.00390625 C-21.79443904 36.1255988 -36.52523155 27.48727899 -50.73046875 25.50390625 C-68.44043845 24.11280366 -83.92475818 27.36553637 -98.10546875 38.75390625 C-107.77461233 47.87343536 -115.5447315 63.21260936 -116.03125 76.54296875 C-116.23937591 96.1592729 -113.38559414 113.65354417 -99.171875 128.32421875 C-85.95564944 140.12366493 -70.36869103 144.61976842 -52.96435547 143.73046875 C-39.08006023 142.3223129 -26.49955997 134.83274954 -16.78833008 125.19873047 C-14.23229722 122.69117183 -12.37951139 120.89210228 -8.73046875 120.50390625 C-8.11042969 121.19613281 -7.49039063 121.88835937 -6.8515625 122.6015625 C-5.52318359 124.06916016 -5.52318359 124.06916016 -4.16796875 125.56640625 C-3.69069336 126.09500244 -3.21341797 126.62359863 -2.72167969 127.16821289 C0.21269 130.37901544 3.22831797 133.46109277 6.375 136.46484375 C7.06198975 137.12605225 7.74897949 137.78726074 8.45678711 138.46850586 C9.81898854 139.771376 11.19339243 141.06162038 12.58032227 142.33813477 C17.19902283 146.77568645 17.19902283 146.77568645 17.51953125 150.0859375 C15.84089701 153.33304561 13.62475086 155.74343675 11.01953125 158.25390625 C10.48303955 158.77686279 9.94654785 159.29981934 9.39379883 159.83862305 C-11.57182585 179.75794352 -38.26436708 187.54987551 -66.6640625 186.84375 C-93.38830766 185.65081705 -119.13588892 175.03730038 -137.73046875 155.50390625 C-149.28757878 142.75452785 -156.82212309 127.96018143 -161.73046875 111.50390625 C-161.91738281 110.89111816 -162.10429688 110.27833008 -162.296875 109.64697266 C-164.11842153 102.80486925 -164.03360693 95.89840033 -163.99121094 88.8671875 C-163.98055989 86.77183615 -163.99111789 84.67735543 -164.00390625 82.58203125 C-164.03571294 54.56529323 -154.36679514 30.92311859 -135.07421875 10.72265625 C-99.28961665 -23.37796457 -40.74391198 -27.79092454 0 0 Z " fill="#020202" transform="translate(800.73046875,427.49609375)"/>
<path d="M0 0 C7.755 -0.04125 15.51 -0.0825 23.5 -0.125 C25.93310547 -0.14320801 28.36621094 -0.16141602 30.87304688 -0.18017578 C32.82161235 -0.18602211 34.77018028 -0.19111734 36.71875 -0.1953125 C37.71422852 -0.20554443 38.70970703 -0.21577637 39.73535156 -0.22631836 C49.71490636 -0.22879591 58.00110755 1.50228085 65.54296875 8.4140625 C70.95789994 14.35301929 71.47250244 21.17312076 71.30859375 28.8671875 C70.63925389 35.662258 68.80530293 41.83657873 63.625 46.5 C57.41705193 51.10290167 51.63421025 53.13342173 43.93432617 53.11352539 C42.94009644 53.11340454 41.9458667 53.11328369 40.92150879 53.11315918 C39.88909058 53.10804321 38.85667236 53.10292725 37.79296875 53.09765625 C36.8347522 53.09664917 35.87653564 53.09564209 34.88928223 53.09460449 C31.32200925 53.0893865 27.75475338 53.07542525 24.1875 53.0625 C16.205625 53.041875 8.22375 53.02125 0 53 C0 35.51 0 18.02 0 0 Z " fill="#FDFDFD" transform="translate(494,453)"/>
<path d="M0 0 C3.16066204 2.62090927 4.25725149 5.60746246 5.75 9.37890625 C6.00481644 10.01524994 6.25963287 10.65159363 6.52217102 11.30722046 C7.35484479 13.38969979 8.17725067 15.47608239 9 17.5625 C10.15645018 20.46242484 11.31842844 23.36012395 12.48046875 26.2578125 C12.77285934 26.98888718 13.06524994 27.71996185 13.36650085 28.47319031 C16.70382567 36.79788718 20.21710606 45.04504024 23.74804688 53.28930664 C24.17794922 54.29598389 24.60785156 55.30266113 25.05078125 56.33984375 C25.42887939 57.22019287 25.80697754 58.10054199 26.1965332 59.00756836 C27 61 27 61 27 62 C9.84 62 -7.32 62 -25 62 C-24.30702521 58.53512605 -23.77429939 56.14096181 -22.43701172 53.03027344 C-22.11932831 52.28469177 -21.8016449 51.53911011 -21.47433472 50.77093506 C-21.12960114 49.97512024 -20.78486755 49.17930542 -20.4296875 48.359375 C-20.0703714 47.51892639 -19.7110553 46.67847778 -19.34085083 45.81256104 C-18.19006213 43.12308781 -17.03282049 40.43645254 -15.875 37.75 C-14.37052962 34.24559044 -12.86865662 30.74007133 -11.3671875 27.234375 C-11.00042908 26.37928345 -10.63367065 25.52419189 -10.25579834 24.64318848 C-6.75402827 16.46274597 -3.36058451 8.2392865 0 0 Z " fill="#F9F9F9" transform="translate(315,468)"/>
</svg>
